<svg width="21" height="21" viewBox="0 0 21 21" fill="none" xmlns="http://www.w3.org/2000/svg">
<path fill-rule="evenodd" clip-rule="evenodd" d="M6.64209 0.14502H14.4538C18.0485 0.14502 20.9636 2.93652 20.9636 6.37883V13.8594C20.9636 17.3017 18.0485 20.0932 14.4538 20.0932H6.64209C3.0474 20.0932 0.132324 17.3017 0.132324 13.8594V6.37883C0.132324 2.93652 3.0474 0.14502 6.64209 0.14502ZM14.4539 18.2228C16.9667 18.2228 19.0108 16.2654 19.0108 13.8591V6.37856C19.0108 3.97231 16.9667 2.01489 14.4539 2.01489H6.64223C4.12946 2.01489 2.08539 3.97231 2.08539 6.37856V13.8591C2.08539 16.2654 4.12946 18.2228 6.64223 18.2228H14.4539Z" fill="black"/>
<path fill-rule="evenodd" clip-rule="evenodd" d="M5.34033 10.1189C5.34033 7.36478 7.67213 5.13184 10.5481 5.13184C13.4242 5.13184 15.756 7.36478 15.756 10.1189C15.756 12.873 13.4242 15.1059 10.5481 15.1059C7.67213 15.1059 5.34033 12.873 5.34033 10.1189ZM7.29325 10.1189C7.29325 11.837 8.75404 13.2358 10.5481 13.2358C12.3422 13.2358 13.803 11.837 13.803 10.1189C13.803 8.39964 12.3422 7.00201 10.5481 7.00201C8.75404 7.00201 7.29325 8.39964 7.29325 10.1189Z" fill="black"/>
<ellipse cx="16.1466" cy="4.75803" rx="0.693941" ry="0.664524" fill="black"/>
</svg>
